<?xml version="1.0" encoding="utf-8" standalone="no"?>
<!DOCTYPE svg PUBLIC "-//W3C//DTD SVG 1.1//EN"
  "http://www.w3.org/Graphics/SVG/1.1/DTD/svg11.dtd">
<!-- Created with matplotlib (https://matplotlib.org/) -->
<svg height="576pt" version="1.1" viewBox="0 0 576 576" width="576pt" xmlns="http://www.w3.org/2000/svg" xmlns:xlink="http://www.w3.org/1999/xlink">
 <defs>
  <style type="text/css">
*{stroke-linecap:butt;stroke-linejoin:round;}
  </style>
 </defs>
 <g id="figure_1">
  <g id="patch_1">
   <path d="M 0 576 
L 576 576 
L 576 0 
L 0 0 
z
" style="fill:#ffffff;"/>
  </g>
  <g id="axes_1">
   <g id="patch_2">
    <path d="M 85.315 504.06 
L 551.3725 504.06 
L 551.3725 119.91 
L 85.315 119.91 
z
" style="fill:#ffffff;"/>
   </g>
   <g id="matplotlib.axis_1">
    <g id="xtick_1">
     <g id="text_1">
      <!-- 2 -->
      <defs>
       <path d="M 19.1875 8.296875 
L 53.609375 8.296875 
L 53.609375 0 
L 7.328125 0 
L 7.328125 8.296875 
Q 12.9375 14.109375 22.625 23.890625 
Q 32.328125 33.6875 34.8125 36.53125 
Q 39.546875 41.84375 41.421875 45.53125 
Q 43.3125 49.21875 43.3125 52.78125 
Q 43.3125 58.59375 39.234375 62.25 
Q 35.15625 65.921875 28.609375 65.921875 
Q 23.96875 65.921875 18.8125 64.3125 
Q 13.671875 62.703125 7.8125 59.421875 
L 7.8125 69.390625 
Q 13.765625 71.78125 18.9375 73 
Q 24.125 74.21875 28.421875 74.21875 
Q 39.75 74.21875 46.484375 68.546875 
Q 53.21875 62.890625 53.21875 53.421875 
Q 53.21875 48.921875 51.53125 44.890625 
Q 49.859375 40.875 45.40625 35.40625 
Q 44.1875 33.984375 37.640625 27.21875 
Q 31.109375 20.453125 19.1875 8.296875 
z
" id="DejaVuSans-50"/>
      </defs>
      <g style="fill:#262626;" transform="translate(80.065938 529.097422)scale(0.165 -0.165)">
       <use xlink:href="#DejaVuSans-50"/>
      </g>
     </g>
    </g>
    <g id="xtick_2">
     <g id="text_2">
      <!-- 3 -->
      <defs>
       <path d="M 40.578125 39.3125 
Q 47.65625 37.796875 51.625 33 
Q 55.609375 28.21875 55.609375 21.1875 
Q 55.609375 10.40625 48.1875 4.484375 
Q 40.765625 -1.421875 27.09375 -1.421875 
Q 22.515625 -1.421875 17.65625 -0.515625 
Q 12.796875 0.390625 7.625 2.203125 
L 7.625 11.71875 
Q 11.71875 9.328125 16.59375 8.109375 
Q 21.484375 6.890625 26.8125 6.890625 
Q 36.078125 6.890625 40.9375 10.546875 
Q 45.796875 14.203125 45.796875 21.1875 
Q 45.796875 27.640625 41.28125 31.265625 
Q 36.765625 34.90625 28.71875 34.90625 
L 20.21875 34.90625 
L 20.21875 43.015625 
L 29.109375 43.015625 
Q 36.375 43.015625 40.234375 45.921875 
Q 44.09375 48.828125 44.09375 54.296875 
Q 44.09375 59.90625 40.109375 62.90625 
Q 36.140625 65.921875 28.71875 65.921875 
Q 24.65625 65.921875 20.015625 65.03125 
Q 15.375 64.15625 9.8125 62.3125 
L 9.8125 71.09375 
Q 15.4375 72.65625 20.34375 73.4375 
Q 25.25 74.21875 29.59375 74.21875 
Q 40.828125 74.21875 47.359375 69.109375 
Q 53.90625 64.015625 53.90625 55.328125 
Q 53.90625 49.265625 50.4375 45.09375 
Q 46.96875 40.921875 40.578125 39.3125 
z
" id="DejaVuSans-51"/>
      </defs>
      <g style="fill:#262626;" transform="translate(196.580313 529.097422)scale(0.165 -0.165)">
       <use xlink:href="#DejaVuSans-51"/>
      </g>
     </g>
    </g>
    <g id="xtick_3">
     <g id="text_3">
      <!-- 4 -->
      <defs>
       <path d="M 37.796875 64.3125 
L 12.890625 25.390625 
L 37.796875 25.390625 
z
M 35.203125 72.90625 
L 47.609375 72.90625 
L 47.609375 25.390625 
L 58.015625 25.390625 
L 58.015625 17.1875 
L 47.609375 17.1875 
L 47.609375 0 
L 37.796875 0 
L 37.796875 17.1875 
L 4.890625 17.1875 
L 4.890625 26.703125 
z
" id="DejaVuSans-52"/>
      </defs>
      <g style="fill:#262626;" transform="translate(313.094688 529.097422)scale(0.165 -0.165)">
       <use xlink:href="#DejaVuSans-52"/>
      </g>
     </g>
    </g>
    <g id="xtick_4">
     <g id="text_4">
      <!-- 5 -->
      <defs>
       <path d="M 10.796875 72.90625 
L 49.515625 72.90625 
L 49.515625 64.59375 
L 19.828125 64.59375 
L 19.828125 46.734375 
Q 21.96875 47.46875 24.109375 47.828125 
Q 26.265625 48.1875 28.421875 48.1875 
Q 40.625 48.1875 47.75 41.5 
Q 54.890625 34.8125 54.890625 23.390625 
Q 54.890625 11.625 47.5625 5.09375 
Q 40.234375 -1.421875 26.90625 -1.421875 
Q 22.3125 -1.421875 17.546875 -0.640625 
Q 12.796875 0.140625 7.71875 1.703125 
L 7.71875 11.625 
Q 12.109375 9.234375 16.796875 8.0625 
Q 21.484375 6.890625 26.703125 6.890625 
Q 35.15625 6.890625 40.078125 11.328125 
Q 45.015625 15.765625 45.015625 23.390625 
Q 45.015625 31 40.078125 35.4375 
Q 35.15625 39.890625 26.703125 39.890625 
Q 22.75 39.890625 18.8125 39.015625 
Q 14.890625 38.140625 10.796875 36.28125 
z
" id="DejaVuSans-53"/>
      </defs>
      <g style="fill:#262626;" transform="translate(429.609063 529.097422)scale(0.165 -0.165)">
       <use xlink:href="#DejaVuSans-53"/>
      </g>
     </g>
    </g>
    <g id="xtick_5">
     <g id="text_5">
      <!-- 6 -->
      <defs>
       <path d="M 33.015625 40.375 
Q 26.375 40.375 22.484375 35.828125 
Q 18.609375 31.296875 18.609375 23.390625 
Q 18.609375 15.53125 22.484375 10.953125 
Q 26.375 6.390625 33.015625 6.390625 
Q 39.65625 6.390625 43.53125 10.953125 
Q 47.40625 15.53125 47.40625 23.390625 
Q 47.40625 31.296875 43.53125 35.828125 
Q 39.65625 40.375 33.015625 40.375 
z
M 52.59375 71.296875 
L 52.59375 62.3125 
Q 48.875 64.0625 45.09375 64.984375 
Q 41.3125 65.921875 37.59375 65.921875 
Q 27.828125 65.921875 22.671875 59.328125 
Q 17.53125 52.734375 16.796875 39.40625 
Q 19.671875 43.65625 24.015625 45.921875 
Q 28.375 48.1875 33.59375 48.1875 
Q 44.578125 48.1875 50.953125 41.515625 
Q 57.328125 34.859375 57.328125 23.390625 
Q 57.328125 12.15625 50.6875 5.359375 
Q 44.046875 -1.421875 33.015625 -1.421875 
Q 20.359375 -1.421875 13.671875 8.265625 
Q 6.984375 17.96875 6.984375 36.375 
Q 6.984375 53.65625 15.1875 63.9375 
Q 23.390625 74.21875 37.203125 74.21875 
Q 40.921875 74.21875 44.703125 73.484375 
Q 48.484375 72.75 52.59375 71.296875 
z
" id="DejaVuSans-54"/>
      </defs>
      <g style="fill:#262626;" transform="translate(546.123438 529.097422)scale(0.165 -0.165)">
       <use xlink:href="#DejaVuSans-54"/>
      </g>
     </g>
    </g>
    <g id="text_6">
     <!-- mean n_cues -->
     <defs>
      <path d="M 52 44.1875 
Q 55.375 50.25 60.0625 53.125 
Q 64.75 56 71.09375 56 
Q 79.640625 56 84.28125 50.015625 
Q 88.921875 44.046875 88.921875 33.015625 
L 88.921875 0 
L 79.890625 0 
L 79.890625 32.71875 
Q 79.890625 40.578125 77.09375 44.375 
Q 74.3125 48.1875 68.609375 48.1875 
Q 61.625 48.1875 57.5625 43.546875 
Q 53.515625 38.921875 53.515625 30.90625 
L 53.515625 0 
L 44.484375 0 
L 44.484375 32.71875 
Q 44.484375 40.625 41.703125 44.40625 
Q 38.921875 48.1875 33.109375 48.1875 
Q 26.21875 48.1875 22.15625 43.53125 
Q 18.109375 38.875 18.109375 30.90625 
L 18.109375 0 
L 9.078125 0 
L 9.078125 54.6875 
L 18.109375 54.6875 
L 18.109375 46.1875 
Q 21.1875 51.21875 25.484375 53.609375 
Q 29.78125 56 35.6875 56 
Q 41.65625 56 45.828125 52.96875 
Q 50 49.953125 52 44.1875 
z
" id="DejaVuSans-109"/>
      <path d="M 56.203125 29.59375 
L 56.203125 25.203125 
L 14.890625 25.203125 
Q 15.484375 15.921875 20.484375 11.0625 
Q 25.484375 6.203125 34.421875 6.203125 
Q 39.59375 6.203125 44.453125 7.46875 
Q 49.3125 8.734375 54.109375 11.28125 
L 54.109375 2.78125 
Q 49.265625 0.734375 44.1875 -0.34375 
Q 39.109375 -1.421875 33.890625 -1.421875 
Q 20.796875 -1.421875 13.15625 6.1875 
Q 5.515625 13.8125 5.515625 26.8125 
Q 5.515625 40.234375 12.765625 48.109375 
Q 20.015625 56 32.328125 56 
Q 43.359375 56 49.78125 48.890625 
Q 56.203125 41.796875 56.203125 29.59375 
z
M 47.21875 32.234375 
Q 47.125 39.59375 43.09375 43.984375 
Q 39.0625 48.390625 32.421875 48.390625 
Q 24.90625 48.390625 20.390625 44.140625 
Q 15.875 39.890625 15.1875 32.171875 
z
" id="DejaVuSans-101"/>
      <path d="M 34.28125 27.484375 
Q 23.390625 27.484375 19.1875 25 
Q 14.984375 22.515625 14.984375 16.5 
Q 14.984375 11.71875 18.140625 8.90625 
Q 21.296875 6.109375 26.703125 6.109375 
Q 34.1875 6.109375 38.703125 11.40625 
Q 43.21875 16.703125 43.21875 25.484375 
L 43.21875 27.484375 
z
M 52.203125 31.203125 
L 52.203125 0 
L 43.21875 0 
L 43.21875 8.296875 
Q 40.140625 3.328125 35.546875 0.953125 
Q 30.953125 -1.421875 24.3125 -1.421875 
Q 15.921875 -1.421875 10.953125 3.296875 
Q 6 8.015625 6 15.921875 
Q 6 25.140625 12.171875 29.828125 
Q 18.359375 34.515625 30.609375 34.515625 
L 43.21875 34.515625 
L 43.21875 35.40625 
Q 43.21875 41.609375 39.140625 45 
Q 35.0625 48.390625 27.6875 48.390625 
Q 23 48.390625 18.546875 47.265625 
Q 14.109375 46.140625 10.015625 43.890625 
L 10.015625 52.203125 
Q 14.9375 54.109375 19.578125 55.046875 
Q 24.21875 56 28.609375 56 
Q 40.484375 56 46.34375 49.84375 
Q 52.203125 43.703125 52.203125 31.203125 
z
" id="DejaVuSans-97"/>
      <path d="M 54.890625 33.015625 
L 54.890625 0 
L 45.90625 0 
L 45.90625 32.71875 
Q 45.90625 40.484375 42.875 44.328125 
Q 39.84375 48.1875 33.796875 48.1875 
Q 26.515625 48.1875 22.3125 43.546875 
Q 18.109375 38.921875 18.109375 30.90625 
L 18.109375 0 
L 9.078125 0 
L 9.078125 54.6875 
L 18.109375 54.6875 
L 18.109375 46.1875 
Q 21.34375 51.125 25.703125 53.5625 
Q 30.078125 56 35.796875 56 
Q 45.21875 56 50.046875 50.171875 
Q 54.890625 44.34375 54.890625 33.015625 
z
" id="DejaVuSans-110"/>
      <path id="DejaVuSans-32"/>
      <path d="M 50.984375 -16.609375 
L 50.984375 -23.578125 
L -0.984375 -23.578125 
L -0.984375 -16.609375 
z
" id="DejaVuSans-95"/>
      <path d="M 48.78125 52.59375 
L 48.78125 44.1875 
Q 44.96875 46.296875 41.140625 47.34375 
Q 37.3125 48.390625 33.40625 48.390625 
Q 24.65625 48.390625 19.8125 42.84375 
Q 14.984375 37.3125 14.984375 27.296875 
Q 14.984375 17.28125 19.8125 11.734375 
Q 24.65625 6.203125 33.40625 6.203125 
Q 37.3125 6.203125 41.140625 7.25 
Q 44.96875 8.296875 48.78125 10.40625 
L 48.78125 2.09375 
Q 45.015625 0.34375 40.984375 -0.53125 
Q 36.96875 -1.421875 32.421875 -1.421875 
Q 20.0625 -1.421875 12.78125 6.34375 
Q 5.515625 14.109375 5.515625 27.296875 
Q 5.515625 40.671875 12.859375 48.328125 
Q 20.21875 56 33.015625 56 
Q 37.15625 56 41.109375 55.140625 
Q 45.0625 54.296875 48.78125 52.59375 
z
" id="DejaVuSans-99"/>
      <path d="M 8.5 21.578125 
L 8.5 54.6875 
L 17.484375 54.6875 
L 17.484375 21.921875 
Q 17.484375 14.15625 20.5 10.265625 
Q 23.53125 6.390625 29.59375 6.390625 
Q 36.859375 6.390625 41.078125 11.03125 
Q 45.3125 15.671875 45.3125 23.6875 
L 45.3125 54.6875 
L 54.296875 54.6875 
L 54.296875 0 
L 45.3125 0 
L 45.3125 8.40625 
Q 42.046875 3.421875 37.71875 1 
Q 33.40625 -1.421875 27.6875 -1.421875 
Q 18.265625 -1.421875 13.375 4.4375 
Q 8.5 10.296875 8.5 21.578125 
z
M 31.109375 56 
z
" id="DejaVuSans-117"/>
      <path d="M 44.28125 53.078125 
L 44.28125 44.578125 
Q 40.484375 46.53125 36.375 47.5 
Q 32.28125 48.484375 27.875 48.484375 
Q 21.1875 48.484375 17.84375 46.4375 
Q 14.5 44.390625 14.5 40.28125 
Q 14.5 37.15625 16.890625 35.375 
Q 19.28125 33.59375 26.515625 31.984375 
L 29.59375 31.296875 
Q 39.15625 29.25 43.1875 25.515625 
Q 47.21875 21.78125 47.21875 15.09375 
Q 47.21875 7.46875 41.1875 3.015625 
Q 35.15625 -1.421875 24.609375 -1.421875 
Q 20.21875 -1.421875 15.453125 -0.5625 
Q 10.6875 0.296875 5.421875 2 
L 5.421875 11.28125 
Q 10.40625 8.6875 15.234375 7.390625 
Q 20.0625 6.109375 24.8125 6.109375 
Q 31.15625 6.109375 34.5625 8.28125 
Q 37.984375 10.453125 37.984375 14.40625 
Q 37.984375 18.0625 35.515625 20.015625 
Q 33.0625 21.96875 24.703125 23.78125 
L 21.578125 24.515625 
Q 13.234375 26.265625 9.515625 29.90625 
Q 5.8125 33.546875 5.8125 39.890625 
Q 5.8125 47.609375 11.28125 51.796875 
Q 16.75 56 26.8125 56 
Q 31.78125 56 36.171875 55.265625 
Q 40.578125 54.546875 44.28125 53.078125 
z
" id="DejaVuSans-115"/>
     </defs>
     <g style="fill:#262626;" transform="translate(258.877656 549.705469)scale(0.18 -0.18)">
      <use xlink:href="#DejaVuSans-109"/>
      <use x="97.412109" xlink:href="#DejaVuSans-101"/>
      <use x="158.935547" xlink:href="#DejaVuSans-97"/>
      <use x="220.214844" xlink:href="#DejaVuSans-110"/>
      <use x="283.59375" xlink:href="#DejaVuSans-32"/>
      <use x="315.380859" xlink:href="#DejaVuSans-110"/>
      <use x="378.759766" xlink:href="#DejaVuSans-95"/>
      <use x="428.759766" xlink:href="#DejaVuSans-99"/>
      <use x="483.740234" xlink:href="#DejaVuSans-117"/>
      <use x="547.119141" xlink:href="#DejaVuSans-101"/>
      <use x="608.642578" xlink:href="#DejaVuSans-115"/>
     </g>
    </g>
   </g>
   <g id="matplotlib.axis_2">
    <g id="ytick_1">
     <g id="text_7">
      <!-- 65 -->
      <g style="fill:#262626;" transform="translate(51.81875 476.557974)scale(0.165 -0.165)">
       <use xlink:href="#DejaVuSans-54"/>
       <use x="63.623047" xlink:href="#DejaVuSans-53"/>
      </g>
     </g>
    </g>
    <g id="ytick_2">
     <g id="text_8">
      <!-- 70 -->
      <defs>
       <path d="M 8.203125 72.90625 
L 55.078125 72.90625 
L 55.078125 68.703125 
L 28.609375 0 
L 18.3125 0 
L 43.21875 64.59375 
L 8.203125 64.59375 
z
" id="DejaVuSans-55"/>
       <path d="M 31.78125 66.40625 
Q 24.171875 66.40625 20.328125 58.90625 
Q 16.5 51.421875 16.5 36.375 
Q 16.5 21.390625 20.328125 13.890625 
Q 24.171875 6.390625 31.78125 6.390625 
Q 39.453125 6.390625 43.28125 13.890625 
Q 47.125 21.390625 47.125 36.375 
Q 47.125 51.421875 43.28125 58.90625 
Q 39.453125 66.40625 31.78125 66.40625 
z
M 31.78125 74.21875 
Q 44.046875 74.21875 50.515625 64.515625 
Q 56.984375 54.828125 56.984375 36.375 
Q 56.984375 17.96875 50.515625 8.265625 
Q 44.046875 -1.421875 31.78125 -1.421875 
Q 19.53125 -1.421875 13.0625 8.265625 
Q 6.59375 17.96875 6.59375 36.375 
Q 6.59375 54.828125 13.0625 64.515625 
Q 19.53125 74.21875 31.78125 74.21875 
z
" id="DejaVuSans-48"/>
      </defs>
      <g style="fill:#262626;" transform="translate(51.81875 426.9576)scale(0.165 -0.165)">
       <use xlink:href="#DejaVuSans-55"/>
       <use x="63.623047" xlink:href="#DejaVuSans-48"/>
      </g>
     </g>
    </g>
    <g id="ytick_3">
     <g id="text_9">
      <!-- 75 -->
      <g style="fill:#262626;" transform="translate(51.81875 377.357226)scale(0.165 -0.165)">
       <use xlink:href="#DejaVuSans-55"/>
       <use x="63.623047" xlink:href="#DejaVuSans-53"/>
      </g>
     </g>
    </g>
    <g id="ytick_4">
     <g id="text_10">
      <!-- 80 -->
      <defs>
       <path d="M 31.78125 34.625 
Q 24.75 34.625 20.71875 30.859375 
Q 16.703125 27.09375 16.703125 20.515625 
Q 16.703125 13.921875 20.71875 10.15625 
Q 24.75 6.390625 31.78125 6.390625 
Q 38.8125 6.390625 42.859375 10.171875 
Q 46.921875 13.96875 46.921875 20.515625 
Q 46.921875 27.09375 42.890625 30.859375 
Q 38.875 34.625 31.78125 34.625 
z
M 21.921875 38.8125 
Q 15.578125 40.375 12.03125 44.71875 
Q 8.5 49.078125 8.5 55.328125 
Q 8.5 64.0625 14.71875 69.140625 
Q 20.953125 74.21875 31.78125 74.21875 
Q 42.671875 74.21875 48.875 69.140625 
Q 55.078125 64.0625 55.078125 55.328125 
Q 55.078125 49.078125 51.53125 44.71875 
Q 48 40.375 41.703125 38.8125 
Q 48.828125 37.15625 52.796875 32.3125 
Q 56.78125 27.484375 56.78125 20.515625 
Q 56.78125 9.90625 50.3125 4.234375 
Q 43.84375 -1.421875 31.78125 -1.421875 
Q 19.734375 -1.421875 13.25 4.234375 
Q 6.78125 9.90625 6.78125 20.515625 
Q 6.78125 27.484375 10.78125 32.3125 
Q 14.796875 37.15625 21.921875 38.8125 
z
M 18.3125 54.390625 
Q 18.3125 48.734375 21.84375 45.5625 
Q 25.390625 42.390625 31.78125 42.390625 
Q 38.140625 42.390625 41.71875 45.5625 
Q 45.3125 48.734375 45.3125 54.390625 
Q 45.3125 60.0625 41.71875 63.234375 
Q 38.140625 66.40625 31.78125 66.40625 
Q 25.390625 66.40625 21.84375 63.234375 
Q 18.3125 60.0625 18.3125 54.390625 
z
" id="DejaVuSans-56"/>
      </defs>
      <g style="fill:#262626;" transform="translate(51.81875 327.756852)scale(0.165 -0.165)">
       <use xlink:href="#DejaVuSans-56"/>
       <use x="63.623047" xlink:href="#DejaVuSans-48"/>
      </g>
     </g>
    </g>
    <g id="ytick_5">
     <g id="text_11">
      <!-- 85 -->
      <g style="fill:#262626;" transform="translate(51.81875 278.156478)scale(0.165 -0.165)">
       <use xlink:href="#DejaVuSans-56"/>
       <use x="63.623047" xlink:href="#DejaVuSans-53"/>
      </g>
     </g>
    </g>
    <g id="ytick_6">
     <g id="text_12">
      <!-- 90 -->
      <defs>
       <path d="M 10.984375 1.515625 
L 10.984375 10.5 
Q 14.703125 8.734375 18.5 7.8125 
Q 22.3125 6.890625 25.984375 6.890625 
Q 35.75 6.890625 40.890625 13.453125 
Q 46.046875 20.015625 46.78125 33.40625 
Q 43.953125 29.203125 39.59375 26.953125 
Q 35.25 24.703125 29.984375 24.703125 
Q 19.046875 24.703125 12.671875 31.3125 
Q 6.296875 37.9375 6.296875 49.421875 
Q 6.296875 60.640625 12.9375 67.421875 
Q 19.578125 74.21875 30.609375 74.21875 
Q 43.265625 74.21875 49.921875 64.515625 
Q 56.59375 54.828125 56.59375 36.375 
Q 56.59375 19.140625 48.40625 8.859375 
Q 40.234375 -1.421875 26.421875 -1.421875 
Q 22.703125 -1.421875 18.890625 -0.6875 
Q 15.09375 0.046875 10.984375 1.515625 
z
M 30.609375 32.421875 
Q 37.25 32.421875 41.125 36.953125 
Q 45.015625 41.5 45.015625 49.421875 
Q 45.015625 57.28125 41.125 61.84375 
Q 37.25 66.40625 30.609375 66.40625 
Q 23.96875 66.40625 20.09375 61.84375 
Q 16.21875 57.28125 16.21875 49.421875 
Q 16.21875 41.5 20.09375 36.953125 
Q 23.96875 32.421875 30.609375 32.421875 
z
" id="DejaVuSans-57"/>
      </defs>
      <g style="fill:#262626;" transform="translate(51.81875 228.556104)scale(0.165 -0.165)">
       <use xlink:href="#DejaVuSans-57"/>
       <use x="63.623047" xlink:href="#DejaVuSans-48"/>
      </g>
     </g>
    </g>
    <g id="ytick_7">
     <g id="text_13">
      <!-- 95 -->
      <g style="fill:#262626;" transform="translate(51.81875 178.95573)scale(0.165 -0.165)">
       <use xlink:href="#DejaVuSans-57"/>
       <use x="63.623047" xlink:href="#DejaVuSans-53"/>
      </g>
     </g>
    </g>
    <g id="ytick_8">
     <g id="text_14">
      <!-- 100 -->
      <defs>
       <path d="M 12.40625 8.296875 
L 28.515625 8.296875 
L 28.515625 63.921875 
L 10.984375 60.40625 
L 10.984375 69.390625 
L 28.421875 72.90625 
L 38.28125 72.90625 
L 38.28125 8.296875 
L 54.390625 8.296875 
L 54.390625 0 
L 12.40625 0 
z
" id="DejaVuSans-49"/>
      </defs>
      <g style="fill:#262626;" transform="translate(41.320625 129.355356)scale(0.165 -0.165)">
       <use xlink:href="#DejaVuSans-49"/>
       <use x="63.623047" xlink:href="#DejaVuSans-48"/>
       <use x="127.246094" xlink:href="#DejaVuSans-48"/>
      </g>
     </g>
    </g>
    <g id="text_15">
     <!-- mean accuracy (%%) -->
     <defs>
      <path d="M 41.109375 46.296875 
Q 39.59375 47.171875 37.8125 47.578125 
Q 36.03125 48 33.890625 48 
Q 26.265625 48 22.1875 43.046875 
Q 18.109375 38.09375 18.109375 28.8125 
L 18.109375 0 
L 9.078125 0 
L 9.078125 54.6875 
L 18.109375 54.6875 
L 18.109375 46.1875 
Q 20.953125 51.171875 25.484375 53.578125 
Q 30.03125 56 36.53125 56 
Q 37.453125 56 38.578125 55.875 
Q 39.703125 55.765625 41.0625 55.515625 
z
" id="DejaVuSans-114"/>
      <path d="M 32.171875 -5.078125 
Q 28.375 -14.84375 24.75 -17.8125 
Q 21.140625 -20.796875 15.09375 -20.796875 
L 7.90625 -20.796875 
L 7.90625 -13.28125 
L 13.1875 -13.28125 
Q 16.890625 -13.28125 18.9375 -11.515625 
Q 21 -9.765625 23.484375 -3.21875 
L 25.09375 0.875 
L 2.984375 54.6875 
L 12.5 54.6875 
L 29.59375 11.921875 
L 46.6875 54.6875 
L 56.203125 54.6875 
z
" id="DejaVuSans-121"/>
      <path d="M 31 75.875 
Q 24.46875 64.65625 21.28125 53.65625 
Q 18.109375 42.671875 18.109375 31.390625 
Q 18.109375 20.125 21.3125 9.0625 
Q 24.515625 -2 31 -13.1875 
L 23.1875 -13.1875 
Q 15.875 -1.703125 12.234375 9.375 
Q 8.59375 20.453125 8.59375 31.390625 
Q 8.59375 42.28125 12.203125 53.3125 
Q 15.828125 64.359375 23.1875 75.875 
z
" id="DejaVuSans-40"/>
      <path d="M 72.703125 32.078125 
Q 68.453125 32.078125 66.03125 28.46875 
Q 63.625 24.859375 63.625 18.40625 
Q 63.625 12.0625 66.03125 8.421875 
Q 68.453125 4.78125 72.703125 4.78125 
Q 76.859375 4.78125 79.265625 8.421875 
Q 81.6875 12.0625 81.6875 18.40625 
Q 81.6875 24.8125 79.265625 28.4375 
Q 76.859375 32.078125 72.703125 32.078125 
z
M 72.703125 38.28125 
Q 80.421875 38.28125 84.953125 32.90625 
Q 89.5 27.546875 89.5 18.40625 
Q 89.5 9.28125 84.9375 3.921875 
Q 80.375 -1.421875 72.703125 -1.421875 
Q 64.890625 -1.421875 60.34375 3.921875 
Q 55.8125 9.28125 55.8125 18.40625 
Q 55.8125 27.59375 60.375 32.9375 
Q 64.9375 38.28125 72.703125 38.28125 
z
M 22.3125 68.015625 
Q 18.109375 68.015625 15.6875 64.375 
Q 13.28125 60.75 13.28125 54.390625 
Q 13.28125 47.953125 15.671875 44.328125 
Q 18.0625 40.71875 22.3125 40.71875 
Q 26.5625 40.71875 28.96875 44.328125 
Q 31.390625 47.953125 31.390625 54.390625 
Q 31.390625 60.6875 28.953125 64.34375 
Q 26.515625 68.015625 22.3125 68.015625 
z
M 66.40625 74.21875 
L 74.21875 74.21875 
L 28.609375 -1.421875 
L 20.796875 -1.421875 
z
M 22.3125 74.21875 
Q 30.03125 74.21875 34.609375 68.875 
Q 39.203125 63.53125 39.203125 54.390625 
Q 39.203125 45.171875 34.640625 39.84375 
Q 30.078125 34.515625 22.3125 34.515625 
Q 14.546875 34.515625 10.03125 39.859375 
Q 5.515625 45.21875 5.515625 54.390625 
Q 5.515625 63.484375 10.046875 68.84375 
Q 14.59375 74.21875 22.3125 74.21875 
z
" id="DejaVuSans-37"/>
      <path d="M 8.015625 75.875 
L 15.828125 75.875 
Q 23.140625 64.359375 26.78125 53.3125 
Q 30.421875 42.28125 30.421875 31.390625 
Q 30.421875 20.453125 26.78125 9.375 
Q 23.140625 -1.703125 15.828125 -13.1875 
L 8.015625 -13.1875 
Q 14.5 -2 17.703125 9.0625 
Q 20.90625 20.125 20.90625 31.390625 
Q 20.90625 42.671875 17.703125 53.65625 
Q 14.5 64.65625 8.015625 75.875 
z
" id="DejaVuSans-41"/>
     </defs>
     <g style="fill:#262626;" transform="translate(33.577188 407.961563)rotate(-90)scale(0.18 -0.18)">
      <use xlink:href="#DejaVuSans-109"/>
      <use x="97.412109" xlink:href="#DejaVuSans-101"/>
      <use x="158.935547" xlink:href="#DejaVuSans-97"/>
      <use x="220.214844" xlink:href="#DejaVuSans-110"/>
      <use x="283.59375" xlink:href="#DejaVuSans-32"/>
      <use x="315.380859" xlink:href="#DejaVuSans-97"/>
      <use x="376.660156" xlink:href="#DejaVuSans-99"/>
      <use x="431.640625" xlink:href="#DejaVuSans-99"/>
      <use x="486.621094" xlink:href="#DejaVuSans-117"/>
      <use x="550" xlink:href="#DejaVuSans-114"/>
      <use x="591.113281" xlink:href="#DejaVuSans-97"/>
      <use x="652.392578" xlink:href="#DejaVuSans-99"/>
      <use x="707.373047" xlink:href="#DejaVuSans-121"/>
      <use x="766.552734" xlink:href="#DejaVuSans-32"/>
      <use x="798.339844" xlink:href="#DejaVuSans-40"/>
      <use x="837.353516" xlink:href="#DejaVuSans-37"/>
      <use x="932.373047" xlink:href="#DejaVuSans-37"/>
      <use x="1027.392578" xlink:href="#DejaVuSans-41"/>
     </g>
    </g>
   </g>
   <g id="PathCollection_1">
    <defs>
     <path d="M 0 4.5 
C 1.193414 4.5 2.338109 4.025852 3.181981 3.181981 
C 4.025852 2.338109 4.5 1.193414 4.5 0 
C 4.5 -1.193414 4.025852 -2.338109 3.181981 -3.181981 
C 2.338109 -4.025852 1.193414 -4.5 0 -4.5 
C -1.193414 -4.5 -2.338109 -4.025852 -3.181981 -3.181981 
C -4.025852 -2.338109 -4.5 -1.193414 -4.5 0 
C -4.5 1.193414 -4.025852 2.338109 -3.181981 3.181981 
C -2.338109 4.025852 -1.193414 4.5 0 4.5 
z
" id="m6a9adf3e96" style="stroke:#4c72b0;stroke-opacity:0.8;"/>
    </defs>
    <g clip-path="url(#pfe596cfc67)">
     <use style="fill:#4c72b0;fill-opacity:0.8;stroke:#4c72b0;stroke-opacity:0.8;" x="153.281719" xlink:href="#m6a9adf3e96" y="350.421693"/>
     <use style="fill:#4c72b0;fill-opacity:0.8;stroke:#4c72b0;stroke-opacity:0.8;" x="405.729531" xlink:href="#m6a9adf3e96" y="247.08758"/>
     <use style="fill:#4c72b0;fill-opacity:0.8;stroke:#4c72b0;stroke-opacity:0.8;" x="403.302148" xlink:href="#m6a9adf3e96" y="350.421693"/>
     <use style="fill:#4c72b0;fill-opacity:0.8;stroke:#4c72b0;stroke-opacity:0.8;" x="446.995039" xlink:href="#m6a9adf3e96" y="309.088048"/>
     <use style="fill:#4c72b0;fill-opacity:0.8;stroke:#4c72b0;stroke-opacity:0.8;" x="342.617578" xlink:href="#m6a9adf3e96" y="288.421225"/>
     <use style="fill:#4c72b0;fill-opacity:0.8;stroke:#4c72b0;stroke-opacity:0.8;" x="347.472344" xlink:href="#m6a9adf3e96" y="288.421225"/>
     <use style="fill:#4c72b0;fill-opacity:0.8;stroke:#4c72b0;stroke-opacity:0.8;" x="381.455703" xlink:href="#m6a9adf3e96" y="329.75487"/>
     <use style="fill:#4c72b0;fill-opacity:0.8;stroke:#4c72b0;stroke-opacity:0.8;" x="250.377031" xlink:href="#m6a9adf3e96" y="412.42216"/>
     <use style="fill:#4c72b0;fill-opacity:0.8;stroke:#4c72b0;stroke-opacity:0.8;" x="398.447383" xlink:href="#m6a9adf3e96" y="164.42029"/>
     <use style="fill:#4c72b0;fill-opacity:0.8;stroke:#4c72b0;stroke-opacity:0.8;" x="284.360391" xlink:href="#m6a9adf3e96" y="350.421693"/>
     <use style="fill:#4c72b0;fill-opacity:0.8;stroke:#4c72b0;stroke-opacity:0.8;" x="408.156914" xlink:href="#m6a9adf3e96" y="267.754403"/>
     <use style="fill:#4c72b0;fill-opacity:0.8;stroke:#4c72b0;stroke-opacity:0.8;" x="461.559336" xlink:href="#m6a9adf3e96" y="247.08758"/>
     <use style="fill:#4c72b0;fill-opacity:0.8;stroke:#4c72b0;stroke-opacity:0.8;" x="497.970078" xlink:href="#m6a9adf3e96" y="226.420758"/>
     <use style="fill:#4c72b0;fill-opacity:0.8;stroke:#4c72b0;stroke-opacity:0.8;" x="408.156914" xlink:href="#m6a9adf3e96" y="226.420758"/>
    </g>
   </g>
   <g id="PolyCollection_1">
    <defs>
     <path d="M 135.414954 -232.945002 
L 135.414954 -89.401364 
L 139.2576 -92.12232 
L 143.100245 -94.995745 
L 146.94289 -97.86917 
L 150.785536 -100.742594 
L 154.628181 -103.630908 
L 158.470826 -106.526522 
L 162.313472 -109.808422 
L 166.156117 -113.033935 
L 169.998762 -115.764094 
L 173.841408 -118.494252 
L 177.684053 -121.224411 
L 181.526698 -123.954569 
L 185.369344 -126.6982 
L 189.211989 -130.270162 
L 193.054634 -133.663481 
L 196.89728 -136.41115 
L 200.739925 -139.167791 
L 204.58257 -142.336838 
L 208.425216 -145.677445 
L 212.267861 -149.094891 
L 216.110506 -152.545441 
L 219.953152 -155.481677 
L 223.795797 -158.538304 
L 227.638442 -161.388896 
L 231.481088 -165.051256 
L 235.323733 -168.208579 
L 239.166378 -171.257445 
L 243.009024 -174.62102 
L 246.851669 -177.382331 
L 250.694314 -180.218904 
L 254.53696 -183.31681 
L 258.379605 -185.81187 
L 262.22225 -188.710667 
L 266.064896 -191.629116 
L 269.907541 -194.804403 
L 273.750186 -198.272882 
L 277.592832 -200.882532 
L 281.435477 -204.234225 
L 285.278122 -207.388147 
L 289.120768 -210.010166 
L 292.963413 -212.769772 
L 296.806058 -215.324811 
L 300.648704 -217.845326 
L 304.491349 -220.615651 
L 308.333994 -223.204274 
L 312.17664 -225.629616 
L 316.019285 -228.163105 
L 319.86193 -229.947666 
L 323.704576 -232.197641 
L 327.547221 -234.708249 
L 331.389866 -236.590578 
L 335.232512 -239.005176 
L 339.075157 -241.479227 
L 342.917802 -243.820037 
L 346.760448 -245.999494 
L 350.603093 -247.979644 
L 354.445738 -250.141367 
L 358.288384 -252.56919 
L 362.131029 -254.820431 
L 365.973674 -256.79668 
L 369.81632 -258.691492 
L 373.658965 -260.265639 
L 377.50161 -261.806217 
L 381.344256 -263.408826 
L 385.186901 -264.487377 
L 389.029546 -265.931387 
L 392.872192 -267.835741 
L 396.714837 -269.406996 
L 400.557483 -270.822642 
L 404.400128 -272.228746 
L 408.242773 -273.704449 
L 412.085419 -274.950125 
L 415.928064 -276.264927 
L 419.770709 -277.324398 
L 423.613355 -278.387325 
L 427.456 -279.471908 
L 431.298645 -280.513178 
L 435.141291 -281.641061 
L 438.983936 -282.850985 
L 442.826581 -283.996553 
L 446.669227 -285.351824 
L 450.511872 -286.714524 
L 454.354517 -288.191857 
L 458.197163 -289.43024 
L 462.039808 -290.189061 
L 465.882453 -291.341553 
L 469.725099 -293.015694 
L 473.567744 -294.345424 
L 477.410389 -295.422166 
L 481.253035 -296.498908 
L 485.09568 -297.57565 
L 488.938325 -298.572679 
L 492.780971 -299.533754 
L 496.623616 -300.503029 
L 500.466261 -301.61157 
L 504.308907 -302.328757 
L 508.151552 -303.140559 
L 511.994197 -304.051575 
L 515.836843 -304.962591 
L 515.836843 -415.247812 
L 515.836843 -415.247812 
L 511.994197 -412.174657 
L 508.151552 -409.130781 
L 504.308907 -406.563656 
L 500.466261 -403.26106 
L 496.623616 -399.954723 
L 492.780971 -396.671516 
L 488.938325 -393.352289 
L 485.09568 -390.378049 
L 481.253035 -387.523242 
L 477.410389 -384.662445 
L 473.567744 -381.639215 
L 469.725099 -379.005592 
L 465.882453 -376.466242 
L 462.039808 -374.473606 
L 458.197163 -372.480969 
L 454.354517 -369.578543 
L 450.511872 -366.07868 
L 446.669227 -362.742412 
L 442.826581 -359.203899 
L 438.983936 -356.570536 
L 435.141291 -354.345226 
L 431.298645 -352.140253 
L 427.456 -348.69597 
L 423.613355 -345.235578 
L 419.770709 -342.537206 
L 415.928064 -339.221195 
L 412.085419 -337.177874 
L 408.242773 -335.189352 
L 404.400128 -333.173501 
L 400.557483 -330.973885 
L 396.714837 -328.615934 
L 392.872192 -326.19119 
L 389.029546 -323.786372 
L 385.186901 -321.739188 
L 381.344256 -319.138513 
L 377.50161 -317.223833 
L 373.658965 -315.653966 
L 369.81632 -313.524323 
L 365.973674 -311.536647 
L 362.131029 -309.912826 
L 358.288384 -307.823097 
L 354.445738 -305.857829 
L 350.603093 -304.147329 
L 346.760448 -302.8149 
L 342.917802 -300.919516 
L 339.075157 -299.339834 
L 335.232512 -297.550555 
L 331.389866 -296.533121 
L 327.547221 -295.194594 
L 323.704576 -294.405622 
L 319.86193 -293.119319 
L 316.019285 -291.476081 
L 312.17664 -289.840557 
L 308.333994 -288.79907 
L 304.491349 -287.79293 
L 300.648704 -286.47927 
L 296.806058 -284.856248 
L 292.963413 -283.258126 
L 289.120768 -282.214866 
L 285.278122 -280.82434 
L 281.435477 -279.80203 
L 277.592832 -278.772675 
L 273.750186 -277.319145 
L 269.907541 -275.5358 
L 266.064896 -274.260529 
L 262.22225 -272.72694 
L 258.379605 -271.193351 
L 254.53696 -269.642041 
L 250.694314 -268.055006 
L 246.851669 -267.060001 
L 243.009024 -266.068024 
L 239.166378 -265.076047 
L 235.323733 -263.801393 
L 231.481088 -262.812388 
L 227.638442 -261.958905 
L 223.795797 -261.095573 
L 219.953152 -259.842262 
L 216.110506 -258.299795 
L 212.267861 -256.757328 
L 208.425216 -255.206285 
L 204.58257 -253.652081 
L 200.739925 -252.982911 
L 196.89728 -252.26459 
L 193.054634 -250.747196 
L 189.211989 -249.224857 
L 185.369344 -247.702519 
L 181.526698 -246.18018 
L 177.684053 -244.657841 
L 173.841408 -243.588003 
L 169.998762 -242.680837 
L 166.156117 -241.296363 
L 162.313472 -239.900762 
L 158.470826 -238.813431 
L 154.628181 -237.83536 
L 150.785536 -236.857288 
L 146.94289 -235.879217 
L 143.100245 -234.901145 
L 139.2576 -233.923073 
L 135.414954 -232.945002 
z
" id="m1ebcb664df" style="stroke:#ffffff;stroke-opacity:0.15;stroke-width:1.5;"/>
    </defs>
    <g clip-path="url(#pfe596cfc67)">
     <use style="fill:#4c72b0;fill-opacity:0.15;stroke:#ffffff;stroke-opacity:0.15;stroke-width:1.5;" x="0" xlink:href="#m1ebcb664df" y="576"/>
    </g>
   </g>
   <g id="PathCollection_2">
    <defs>
     <path d="M 0 4.5 
C 1.193414 4.5 2.338109 4.025852 3.181981 3.181981 
C 4.025852 2.338109 4.5 1.193414 4.5 0 
C 4.5 -1.193414 4.025852 -2.338109 3.181981 -3.181981 
C 2.338109 -4.025852 1.193414 -4.5 0 -4.5 
C -1.193414 -4.5 -2.338109 -4.025852 -3.181981 -3.181981 
C -4.025852 -2.338109 -4.5 -1.193414 -4.5 0 
C -4.5 1.193414 -4.025852 2.338109 -3.181981 3.181981 
C -2.338109 4.025852 -1.193414 4.5 0 4.5 
z
" id="m64b49897c6" style="stroke:#dd8452;stroke-opacity:0.8;"/>
    </defs>
    <g clip-path="url(#pfe596cfc67)">
     <use style="fill:#dd8452;fill-opacity:0.8;stroke:#dd8452;stroke-opacity:0.8;" x="430.003359" xlink:href="#m64b49897c6" y="267.754403"/>
     <use style="fill:#dd8452;fill-opacity:0.8;stroke:#dd8452;stroke-opacity:0.8;" x="381.455703" xlink:href="#m64b49897c6" y="226.420758"/>
     <use style="fill:#dd8452;fill-opacity:0.8;stroke:#dd8452;stroke-opacity:0.8;" x="415.439063" xlink:href="#m64b49897c6" y="205.753935"/>
     <use style="fill:#dd8452;fill-opacity:0.8;stroke:#dd8452;stroke-opacity:0.8;" x="454.277188" xlink:href="#m64b49897c6" y="247.08758"/>
     <use style="fill:#dd8452;fill-opacity:0.8;stroke:#dd8452;stroke-opacity:0.8;" x="240.6675" xlink:href="#m64b49897c6" y="329.75487"/>
     <use style="fill:#dd8452;fill-opacity:0.8;stroke:#dd8452;stroke-opacity:0.8;" x="315.916367" xlink:href="#m64b49897c6" y="267.754403"/>
     <use style="fill:#dd8452;fill-opacity:0.8;stroke:#dd8452;stroke-opacity:0.8;" x="444.567656" xlink:href="#m64b49897c6" y="205.753935"/>
     <use style="fill:#dd8452;fill-opacity:0.8;stroke:#dd8452;stroke-opacity:0.8;" x="272.223477" xlink:href="#m64b49897c6" y="288.421225"/>
     <use style="fill:#dd8452;fill-opacity:0.8;stroke:#dd8452;stroke-opacity:0.8;" x="459.131953" xlink:href="#m64b49897c6" y="185.087113"/>
     <use style="fill:#dd8452;fill-opacity:0.8;stroke:#dd8452;stroke-opacity:0.8;" x="430.003359" xlink:href="#m64b49897c6" y="350.421693"/>
     <use style="fill:#dd8452;fill-opacity:0.8;stroke:#dd8452;stroke-opacity:0.8;" x="364.464023" xlink:href="#m64b49897c6" y="267.754403"/>
     <use style="fill:#dd8452;fill-opacity:0.8;stroke:#dd8452;stroke-opacity:0.8;" x="442.140273" xlink:href="#m64b49897c6" y="164.42029"/>
     <use style="fill:#dd8452;fill-opacity:0.8;stroke:#dd8452;stroke-opacity:0.8;" x="439.712891" xlink:href="#m64b49897c6" y="205.753935"/>
     <use style="fill:#dd8452;fill-opacity:0.8;stroke:#dd8452;stroke-opacity:0.8;" x="449.422422" xlink:href="#m64b49897c6" y="288.421225"/>
     <use style="fill:#dd8452;fill-opacity:0.8;stroke:#dd8452;stroke-opacity:0.8;" x="342.617578" xlink:href="#m64b49897c6" y="267.754403"/>
     <use style="fill:#dd8452;fill-opacity:0.8;stroke:#dd8452;stroke-opacity:0.8;" x="439.712891" xlink:href="#m64b49897c6" y="164.42029"/>
     <use style="fill:#dd8452;fill-opacity:0.8;stroke:#dd8452;stroke-opacity:0.8;" x="393.592617" xlink:href="#m64b49897c6" y="226.420758"/>
     <use style="fill:#dd8452;fill-opacity:0.8;stroke:#dd8452;stroke-opacity:0.8;" x="442.140273" xlink:href="#m64b49897c6" y="267.754403"/>
     <use style="fill:#dd8452;fill-opacity:0.8;stroke:#dd8452;stroke-opacity:0.8;" x="391.165234" xlink:href="#m64b49897c6" y="143.753468"/>
     <use style="fill:#dd8452;fill-opacity:0.8;stroke:#dd8452;stroke-opacity:0.8;" x="342.617578" xlink:href="#m64b49897c6" y="226.420758"/>
     <use style="fill:#dd8452;fill-opacity:0.8;stroke:#dd8452;stroke-opacity:0.8;" x="369.318789" xlink:href="#m64b49897c6" y="350.421693"/>
     <use style="fill:#dd8452;fill-opacity:0.8;stroke:#dd8452;stroke-opacity:0.8;" x="187.265078" xlink:href="#m64b49897c6" y="371.088515"/>
     <use style="fill:#dd8452;fill-opacity:0.8;stroke:#dd8452;stroke-opacity:0.8;" x="371.746172" xlink:href="#m64b49897c6" y="205.753935"/>
     <use style="fill:#dd8452;fill-opacity:0.8;stroke:#dd8452;stroke-opacity:0.8;" x="255.231797" xlink:href="#m64b49897c6" y="267.754403"/>
     <use style="fill:#dd8452;fill-opacity:0.8;stroke:#dd8452;stroke-opacity:0.8;" x="354.754492" xlink:href="#m64b49897c6" y="247.08758"/>
     <use style="fill:#dd8452;fill-opacity:0.8;stroke:#dd8452;stroke-opacity:0.8;" x="328.053281" xlink:href="#m64b49897c6" y="329.75487"/>
     <use style="fill:#dd8452;fill-opacity:0.8;stroke:#dd8452;stroke-opacity:0.8;" x="172.700781" xlink:href="#m64b49897c6" y="391.755338"/>
     <use style="fill:#dd8452;fill-opacity:0.8;stroke:#dd8452;stroke-opacity:0.8;" x="233.385352" xlink:href="#m64b49897c6" y="288.421225"/>
     <use style="fill:#dd8452;fill-opacity:0.8;stroke:#dd8452;stroke-opacity:0.8;" x="252.804414" xlink:href="#m64b49897c6" y="329.75487"/>
     <use style="fill:#dd8452;fill-opacity:0.8;stroke:#dd8452;stroke-opacity:0.8;" x="264.941328" xlink:href="#m64b49897c6" y="267.754403"/>
    </g>
   </g>
   <g id="PolyCollection_2">
    <defs>
     <path d="M 116.39386 -249.39112 
L 116.39386 -166.845234 
L 120.62077 -169.301641 
L 124.84768 -171.721923 
L 129.074589 -174.142204 
L 133.301499 -176.562485 
L 137.528409 -178.982766 
L 141.755319 -181.684704 
L 145.982229 -184.14458 
L 150.209139 -187.074283 
L 154.436049 -189.50174 
L 158.662959 -192.322614 
L 162.889868 -194.987155 
L 167.116778 -197.428753 
L 171.343688 -200.131754 
L 175.570598 -202.836397 
L 179.797508 -205.438255 
L 184.024418 -207.924892 
L 188.251328 -210.173302 
L 192.478238 -212.424923 
L 196.705147 -214.96368 
L 200.932057 -217.518242 
L 205.158967 -220.283932 
L 209.385877 -222.940623 
L 213.612787 -225.472645 
L 217.839697 -227.747794 
L 222.066607 -230.121758 
L 226.293516 -232.690261 
L 230.520426 -235.360485 
L 234.747336 -237.981615 
L 238.974246 -240.180258 
L 243.201156 -242.276783 
L 247.428066 -244.675521 
L 251.654976 -247.349151 
L 255.881886 -249.712305 
L 260.108795 -252.076089 
L 264.335705 -254.441158 
L 268.562615 -256.906784 
L 272.789525 -259.063344 
L 277.016435 -261.160432 
L 281.243345 -263.163781 
L 285.470255 -265.398766 
L 289.697165 -267.542011 
L 293.924074 -269.443799 
L 298.150984 -271.512578 
L 302.377894 -273.475944 
L 306.604804 -275.49738 
L 310.831714 -277.761619 
L 315.058624 -279.725992 
L 319.285534 -281.372601 
L 323.512444 -282.888386 
L 327.739353 -284.910647 
L 331.966263 -286.754446 
L 336.193173 -288.929721 
L 340.420083 -290.71662 
L 344.646993 -292.305352 
L 348.873903 -294.207085 
L 353.100813 -295.801856 
L 357.327722 -297.37117 
L 361.554632 -298.941444 
L 365.781542 -300.502533 
L 370.008452 -301.88477 
L 374.235362 -303.579801 
L 378.462272 -305.073765 
L 382.689182 -306.481489 
L 386.916092 -307.87784 
L 391.143001 -309.058898 
L 395.369911 -310.238891 
L 399.596821 -311.997805 
L 403.823731 -312.967655 
L 408.050641 -314.445419 
L 412.277551 -315.799514 
L 416.504461 -316.728712 
L 420.731371 -318.06202 
L 424.95828 -319.189926 
L 429.18519 -320.78599 
L 433.4121 -322.412985 
L 437.63901 -323.933865 
L 441.86592 -325.167345 
L 446.09283 -326.420055 
L 450.31974 -327.395048 
L 454.546649 -328.422652 
L 458.773559 -330.159915 
L 463.000469 -331.491922 
L 467.227379 -332.768085 
L 471.454289 -333.90021 
L 475.681199 -334.871088 
L 479.908109 -336.21028 
L 484.135019 -337.653883 
L 488.361928 -338.8781 
L 492.588838 -339.999463 
L 496.815748 -341.03391 
L 501.042658 -342.068357 
L 505.269568 -343.102805 
L 509.496478 -344.139451 
L 513.723388 -345.011801 
L 517.950298 -345.866741 
L 522.177207 -347.010894 
L 526.404117 -348.176795 
L 530.631027 -349.061346 
L 534.857937 -349.958809 
L 534.857937 -438.628636 
L 534.857937 -438.628636 
L 530.631027 -436.004798 
L 526.404117 -433.341299 
L 522.177207 -430.601873 
L 517.950298 -427.862448 
L 513.723388 -425.188822 
L 509.496478 -422.665029 
L 505.269568 -420.141236 
L 501.042658 -417.617444 
L 496.815748 -415.037891 
L 492.588838 -412.416149 
L 488.361928 -409.548586 
L 484.135019 -406.876665 
L 479.908109 -404.295558 
L 475.681199 -401.714262 
L 471.454289 -399.132966 
L 467.227379 -396.551671 
L 463.000469 -393.963524 
L 458.773559 -391.321479 
L 454.546649 -388.679435 
L 450.31974 -386.102332 
L 446.09283 -383.588483 
L 441.86592 -380.968714 
L 437.63901 -378.347005 
L 433.4121 -375.72448 
L 429.18519 -373.259005 
L 424.95828 -370.756443 
L 420.731371 -368.182769 
L 416.504461 -365.79222 
L 412.277551 -363.383161 
L 408.050641 -361.005113 
L 403.823731 -358.286264 
L 399.596821 -355.99001 
L 395.369911 -353.767422 
L 391.143001 -351.61118 
L 386.916092 -349.357191 
L 382.689182 -347.004212 
L 378.462272 -344.50392 
L 374.235362 -342.162661 
L 370.008452 -339.69134 
L 365.781542 -337.146729 
L 361.554632 -334.975681 
L 357.327722 -332.73556 
L 353.100813 -330.506134 
L 348.873903 -328.147576 
L 344.646993 -325.717357 
L 340.420083 -323.764416 
L 336.193173 -321.831169 
L 331.966263 -319.969406 
L 327.739353 -317.982135 
L 323.512444 -315.955605 
L 319.285534 -314.129558 
L 315.058624 -312.5791 
L 310.831714 -310.548126 
L 306.604804 -308.770997 
L 302.377894 -307.034927 
L 298.150984 -305.221512 
L 293.924074 -303.167134 
L 289.697165 -301.112548 
L 285.470255 -300.004392 
L 281.243345 -298.825932 
L 277.016435 -297.68239 
L 272.789525 -295.966606 
L 268.562615 -294.25256 
L 264.335705 -293.024819 
L 260.108795 -291.714772 
L 255.881886 -290.502193 
L 251.654976 -289.127261 
L 247.428066 -287.402964 
L 243.201156 -285.750284 
L 238.974246 -284.399678 
L 234.747336 -283.044018 
L 230.520426 -281.694424 
L 226.293516 -280.345268 
L 222.066607 -279.35291 
L 217.839697 -278.254395 
L 213.612787 -276.744437 
L 209.385877 -275.615834 
L 205.158967 -274.573735 
L 200.932057 -273.531635 
L 196.705147 -272.489536 
L 192.478238 -271.386725 
L 188.251328 -270.134712 
L 184.024418 -268.721975 
L 179.797508 -267.309239 
L 175.570598 -266.146035 
L 171.343688 -265.120945 
L 167.116778 -264.095553 
L 162.889868 -262.953499 
L 158.662959 -261.886466 
L 154.436049 -260.653197 
L 150.209139 -259.03087 
L 145.982229 -257.674178 
L 141.755319 -256.740841 
L 137.528409 -255.454875 
L 133.301499 -254.125236 
L 129.074589 -252.791767 
L 124.84768 -251.64004 
L 120.62077 -250.51558 
L 116.39386 -249.39112 
z
" id="m0bc623b4ba" style="stroke:#ffffff;stroke-opacity:0.15;stroke-width:1.5;"/>
    </defs>
    <g clip-path="url(#pfe596cfc67)">
     <use style="fill:#dd8452;fill-opacity:0.15;stroke:#ffffff;stroke-opacity:0.15;stroke-width:1.5;" x="0" xlink:href="#m0bc623b4ba" y="576"/>
    </g>
   </g>
   <g id="line2d_1">
    <path clip-path="url(#pfe596cfc67)" d="M 135.414954 398.616598 
L 139.2576 396.841054 
L 143.100245 395.065511 
L 146.94289 393.289968 
L 150.785536 391.514424 
L 154.628181 389.738881 
L 158.470826 387.963338 
L 162.313472 386.187794 
L 166.156117 384.412251 
L 169.998762 382.636707 
L 173.841408 380.861164 
L 177.684053 379.085621 
L 181.526698 377.310077 
L 185.369344 375.534534 
L 189.211989 373.758991 
L 193.054634 371.983447 
L 196.89728 370.207904 
L 200.739925 368.432361 
L 204.58257 366.656817 
L 208.425216 364.881274 
L 212.267861 363.10573 
L 216.110506 361.330187 
L 219.953152 359.554644 
L 223.795797 357.7791 
L 227.638442 356.003557 
L 231.481088 354.228014 
L 235.323733 352.45247 
L 239.166378 350.676927 
L 243.009024 348.901384 
L 246.851669 347.12584 
L 250.694314 345.350297 
L 254.53696 343.574754 
L 258.379605 341.79921 
L 262.22225 340.023667 
L 266.064896 338.248123 
L 269.907541 336.47258 
L 273.750186 334.697037 
L 277.592832 332.921493 
L 281.435477 331.14595 
L 285.278122 329.370407 
L 289.120768 327.594863 
L 292.963413 325.81932 
L 296.806058 324.043777 
L 300.648704 322.268233 
L 304.491349 320.49269 
L 308.333994 318.717146 
L 312.17664 316.941603 
L 316.019285 315.16606 
L 319.86193 313.390516 
L 323.704576 311.614973 
L 327.547221 309.83943 
L 331.389866 308.063886 
L 335.232512 306.288343 
L 339.075157 304.5128 
L 342.917802 302.737256 
L 346.760448 300.961713 
L 350.603093 299.186169 
L 354.445738 297.410626 
L 358.288384 295.635083 
L 362.131029 293.859539 
L 365.973674 292.083996 
L 369.81632 290.308453 
L 373.658965 288.532909 
L 377.50161 286.757366 
L 381.344256 284.981823 
L 385.186901 283.206279 
L 389.029546 281.430736 
L 392.872192 279.655192 
L 396.714837 277.879649 
L 400.557483 276.104106 
L 404.400128 274.328562 
L 408.242773 272.553019 
L 412.085419 270.777476 
L 415.928064 269.001932 
L 419.770709 267.226389 
L 423.613355 265.450846 
L 427.456 263.675302 
L 431.298645 261.899759 
L 435.141291 260.124216 
L 438.983936 258.348672 
L 442.826581 256.573129 
L 446.669227 254.797585 
L 450.511872 253.022042 
L 454.354517 251.246499 
L 458.197163 249.470955 
L 462.039808 247.695412 
L 465.882453 245.919869 
L 469.725099 244.144325 
L 473.567744 242.368782 
L 477.410389 240.593239 
L 481.253035 238.817695 
L 485.09568 237.042152 
L 488.938325 235.266608 
L 492.780971 233.491065 
L 496.623616 231.715522 
L 500.466261 229.939978 
L 504.308907 228.164435 
L 508.151552 226.388892 
L 511.994197 224.613348 
L 515.836843 222.837805 
" style="fill:none;stroke:#4c72b0;stroke-linecap:round;stroke-width:3.375;"/>
   </g>
   <g id="line2d_2">
    <path clip-path="url(#pfe596cfc67)" d="M 116.39386 374.367233 
L 120.62077 372.3775 
L 124.84768 370.387767 
L 129.074589 368.398035 
L 133.301499 366.408302 
L 137.528409 364.418569 
L 141.755319 362.428836 
L 145.982229 360.439104 
L 150.209139 358.449371 
L 154.436049 356.459638 
L 158.662959 354.469906 
L 162.889868 352.480173 
L 167.116778 350.49044 
L 171.343688 348.500708 
L 175.570598 346.510975 
L 179.797508 344.521242 
L 184.024418 342.531509 
L 188.251328 340.541777 
L 192.478238 338.552044 
L 196.705147 336.562311 
L 200.932057 334.572579 
L 205.158967 332.582846 
L 209.385877 330.593113 
L 213.612787 328.603381 
L 217.839697 326.613648 
L 222.066607 324.623915 
L 226.293516 322.634182 
L 230.520426 320.64445 
L 234.747336 318.654717 
L 238.974246 316.664984 
L 243.201156 314.675252 
L 247.428066 312.685519 
L 251.654976 310.695786 
L 255.881886 308.706053 
L 260.108795 306.716321 
L 264.335705 304.726588 
L 268.562615 302.736855 
L 272.789525 300.747123 
L 277.016435 298.75739 
L 281.243345 296.767657 
L 285.470255 294.777925 
L 289.697165 292.788192 
L 293.924074 290.798459 
L 298.150984 288.808726 
L 302.377894 286.818994 
L 306.604804 284.829261 
L 310.831714 282.839528 
L 315.058624 280.849796 
L 319.285534 278.860063 
L 323.512444 276.87033 
L 327.739353 274.880598 
L 331.966263 272.890865 
L 336.193173 270.901132 
L 340.420083 268.911399 
L 344.646993 266.921667 
L 348.873903 264.931934 
L 353.100813 262.942201 
L 357.327722 260.952469 
L 361.554632 258.962736 
L 365.781542 256.973003 
L 370.008452 254.983271 
L 374.235362 252.993538 
L 378.462272 251.003805 
L 382.689182 249.014072 
L 386.916092 247.02434 
L 391.143001 245.034607 
L 395.369911 243.044874 
L 399.596821 241.055142 
L 403.823731 239.065409 
L 408.050641 237.075676 
L 412.277551 235.085944 
L 416.504461 233.096211 
L 420.731371 231.106478 
L 424.95828 229.116745 
L 429.18519 227.127013 
L 433.4121 225.13728 
L 437.63901 223.147547 
L 441.86592 221.157815 
L 446.09283 219.168082 
L 450.31974 217.178349 
L 454.546649 215.188616 
L 458.773559 213.198884 
L 463.000469 211.209151 
L 467.227379 209.219418 
L 471.454289 207.229686 
L 475.681199 205.239953 
L 479.908109 203.25022 
L 484.135019 201.260488 
L 488.361928 199.270755 
L 492.588838 197.281022 
L 496.815748 195.291289 
L 501.042658 193.301557 
L 505.269568 191.311824 
L 509.496478 189.322091 
L 513.723388 187.332359 
L 517.950298 185.342626 
L 522.177207 183.352893 
L 526.404117 181.363161 
L 530.631027 179.373428 
L 534.857937 177.383695 
" style="fill:none;stroke:#dd8452;stroke-linecap:round;stroke-width:3.375;"/>
   </g>
   <g id="patch_3">
    <path d="M 85.315 504.06 
L 85.315 119.91 
" style="fill:none;stroke:#262626;stroke-linecap:square;stroke-linejoin:miter;stroke-width:1.875;"/>
   </g>
   <g id="patch_4">
    <path d="M 551.3725 504.06 
L 551.3725 119.91 
" style="fill:none;stroke:#262626;stroke-linecap:square;stroke-linejoin:miter;stroke-width:1.875;"/>
   </g>
   <g id="patch_5">
    <path d="M 85.315 504.06 
L 551.3725 504.06 
" style="fill:none;stroke:#262626;stroke-linecap:square;stroke-linejoin:miter;stroke-width:1.875;"/>
   </g>
   <g id="patch_6">
    <path d="M 85.315 119.91 
L 551.3725 119.91 
" style="fill:none;stroke:#262626;stroke-linecap:square;stroke-linejoin:miter;stroke-width:1.875;"/>
   </g>
   <g id="legend_1">
    <g id="patch_7">
     <path d="M 134.05875 92.5325 
L 506.62875 92.5325 
Q 509.92875 92.5325 509.92875 89.2325 
L 509.92875 37.4225 
Q 509.92875 34.1225 506.62875 34.1225 
L 134.05875 34.1225 
Q 130.75875 34.1225 130.75875 37.4225 
L 130.75875 89.2325 
Q 130.75875 92.5325 134.05875 92.5325 
z
" style="fill:#4c4c4c;opacity:0.5;stroke:#4c4c4c;stroke-linejoin:miter;stroke-width:1.5;"/>
    </g>
    <g id="patch_8">
     <path d="M 132.05875 90.5325 
L 504.62875 90.5325 
Q 507.92875 90.5325 507.92875 87.2325 
L 507.92875 35.4225 
Q 507.92875 32.1225 504.62875 32.1225 
L 132.05875 32.1225 
Q 128.75875 32.1225 128.75875 35.4225 
L 128.75875 87.2325 
Q 128.75875 90.5325 132.05875 90.5325 
z
" style="fill:#ffffff;stroke:#cccccc;stroke-linejoin:miter;stroke-width:1.5;"/>
    </g>
    <g id="PathCollection_3">
     <g>
      <use style="fill:#4c72b0;fill-opacity:0.8;stroke:#4c72b0;stroke-opacity:0.8;" x="151.85875" xlink:href="#m6a9adf3e96" y="49.40625"/>
     </g>
    </g>
    <g id="text_16">
     <!-- humans, $r^2=0.64$, $p=0.0140$ ($N=14$) -->
     <defs>
      <path d="M 54.890625 33.015625 
L 54.890625 0 
L 45.90625 0 
L 45.90625 32.71875 
Q 45.90625 40.484375 42.875 44.328125 
Q 39.84375 48.1875 33.796875 48.1875 
Q 26.515625 48.1875 22.3125 43.546875 
Q 18.109375 38.921875 18.109375 30.90625 
L 18.109375 0 
L 9.078125 0 
L 9.078125 75.984375 
L 18.109375 75.984375 
L 18.109375 46.1875 
Q 21.34375 51.125 25.703125 53.5625 
Q 30.078125 56 35.796875 56 
Q 45.21875 56 50.046875 50.171875 
Q 54.890625 44.34375 54.890625 33.015625 
z
" id="DejaVuSans-104"/>
      <path d="M 11.71875 12.40625 
L 22.015625 12.40625 
L 22.015625 4 
L 14.015625 -11.625 
L 7.71875 -11.625 
L 11.71875 4 
z
" id="DejaVuSans-44"/>
      <path d="M 44.578125 46.390625 
Q 43.21875 47.125 41.453125 47.515625 
Q 39.703125 47.90625 37.703125 47.90625 
Q 30.515625 47.90625 25.140625 42.453125 
Q 19.78125 37.015625 18.015625 27.875 
L 12.5 0 
L 3.515625 0 
L 14.203125 54.6875 
L 23.1875 54.6875 
L 21.484375 46.1875 
Q 25.046875 50.921875 30 53.453125 
Q 34.96875 56 40.578125 56 
Q 42.046875 56 43.453125 55.828125 
Q 44.875 55.671875 46.296875 55.28125 
z
" id="DejaVuSans-Oblique-114"/>
      <path d="M 10.59375 45.40625 
L 73.1875 45.40625 
L 73.1875 37.203125 
L 10.59375 37.203125 
z
M 10.59375 25.484375 
L 73.1875 25.484375 
L 73.1875 17.1875 
L 10.59375 17.1875 
z
" id="DejaVuSans-61"/>
      <path d="M 10.6875 12.40625 
L 21 12.40625 
L 21 0 
L 10.6875 0 
z
" id="DejaVuSans-46"/>
      <path d="M 49.609375 33.6875 
Q 49.609375 40.875 46.484375 44.671875 
Q 43.359375 48.484375 37.5 48.484375 
Q 33.5 48.484375 29.859375 46.4375 
Q 26.21875 44.390625 23.390625 40.484375 
Q 20.609375 36.625 18.9375 31.15625 
Q 17.28125 25.6875 17.28125 20.3125 
Q 17.28125 13.484375 20.40625 9.796875 
Q 23.53125 6.109375 29.296875 6.109375 
Q 33.546875 6.109375 37.1875 8.109375 
Q 40.828125 10.109375 43.40625 13.921875 
Q 46.1875 17.921875 47.890625 23.34375 
Q 49.609375 28.765625 49.609375 33.6875 
z
M 21.78125 46.390625 
Q 25.390625 51.125 30.296875 53.5625 
Q 35.203125 56 41.21875 56 
Q 49.609375 56 54.25 50.5 
Q 58.890625 45.015625 58.890625 35.109375 
Q 58.890625 27 56 19.65625 
Q 53.125 12.3125 47.703125 6.5 
Q 44.09375 2.640625 39.546875 0.609375 
Q 35.015625 -1.421875 29.984375 -1.421875 
Q 24.171875 -1.421875 20.21875 1 
Q 16.265625 3.421875 14.3125 8.203125 
L 8.6875 -20.796875 
L -0.296875 -20.796875 
L 14.40625 54.6875 
L 23.390625 54.6875 
z
" id="DejaVuSans-Oblique-112"/>
      <path d="M 16.890625 72.90625 
L 30.171875 72.90625 
L 50.296875 10.40625 
L 62.5 72.90625 
L 72.125 72.90625 
L 57.90625 0 
L 44.578125 0 
L 24.515625 62.890625 
L 12.3125 0 
L 2.6875 0 
z
" id="DejaVuSans-Oblique-78"/>
     </defs>
     <g style="fill:#262626;" transform="translate(181.55875 53.7375)scale(0.165 -0.165)">
      <use transform="translate(0 0.765625)" xlink:href="#DejaVuSans-104"/>
      <use transform="translate(63.378906 0.765625)" xlink:href="#DejaVuSans-117"/>
      <use transform="translate(126.757812 0.765625)" xlink:href="#DejaVuSans-109"/>
      <use transform="translate(224.169922 0.765625)" xlink:href="#DejaVuSans-97"/>
      <use transform="translate(285.449219 0.765625)" xlink:href="#DejaVuSans-110"/>
      <use transform="translate(348.828125 0.765625)" xlink:href="#DejaVuSans-115"/>
      <use transform="translate(400.927734 0.765625)" xlink:href="#DejaVuSans-44"/>
      <use transform="translate(432.714844 0.765625)" xlink:href="#DejaVuSans-32"/>
      <use transform="translate(464.501953 0.765625)" xlink:href="#DejaVuSans-Oblique-114"/>
      <use transform="translate(510.26513 39.046875)scale(0.7)" xlink:href="#DejaVuSans-50"/>
      <use transform="translate(577.01806 0.765625)" xlink:href="#DejaVuSans-61"/>
      <use transform="translate(680.289544 0.765625)" xlink:href="#DejaVuSans-48"/>
      <use transform="translate(743.912591 0.765625)" xlink:href="#DejaVuSans-46"/>
      <use transform="translate(775.699701 0.765625)" xlink:href="#DejaVuSans-54"/>
      <use transform="translate(839.322747 0.765625)" xlink:href="#DejaVuSans-52"/>
      <use transform="translate(902.945794 0.765625)" xlink:href="#DejaVuSans-44"/>
      <use transform="translate(934.732904 0.765625)" xlink:href="#DejaVuSans-32"/>
      <use transform="translate(966.520013 0.765625)" xlink:href="#DejaVuSans-Oblique-112"/>
      <use transform="translate(1049.478997 0.765625)" xlink:href="#DejaVuSans-61"/>
      <use transform="translate(1152.750482 0.765625)" xlink:href="#DejaVuSans-48"/>
      <use transform="translate(1216.373529 0.765625)" xlink:href="#DejaVuSans-46"/>
      <use transform="translate(1248.160638 0.765625)" xlink:href="#DejaVuSans-48"/>
      <use transform="translate(1311.783685 0.765625)" xlink:href="#DejaVuSans-49"/>
      <use transform="translate(1375.406732 0.765625)" xlink:href="#DejaVuSans-52"/>
      <use transform="translate(1439.029779 0.765625)" xlink:href="#DejaVuSans-48"/>
      <use transform="translate(1502.652826 0.765625)" xlink:href="#DejaVuSans-32"/>
      <use transform="translate(1534.439935 0.765625)" xlink:href="#DejaVuSans-40"/>
      <use transform="translate(1573.453607 0.765625)" xlink:href="#DejaVuSans-Oblique-78"/>
      <use transform="translate(1667.740716 0.765625)" xlink:href="#DejaVuSans-61"/>
      <use transform="translate(1771.012201 0.765625)" xlink:href="#DejaVuSans-49"/>
      <use transform="translate(1834.635247 0.765625)" xlink:href="#DejaVuSans-52"/>
      <use transform="translate(1898.258294 0.765625)" xlink:href="#DejaVuSans-41"/>
     </g>
    </g>
    <g id="PathCollection_4">
     <g>
      <use style="fill:#dd8452;fill-opacity:0.8;stroke:#dd8452;stroke-opacity:0.8;" x="151.85875" xlink:href="#m64b49897c6" y="76.13625"/>
     </g>
    </g>
    <g id="text_17">
     <!-- agents, $r^2=0.64$, $p=0.0002$ ($N=30$) -->
     <defs>
      <path d="M 45.40625 27.984375 
Q 45.40625 37.75 41.375 43.109375 
Q 37.359375 48.484375 30.078125 48.484375 
Q 22.859375 48.484375 18.828125 43.109375 
Q 14.796875 37.75 14.796875 27.984375 
Q 14.796875 18.265625 18.828125 12.890625 
Q 22.859375 7.515625 30.078125 7.515625 
Q 37.359375 7.515625 41.375 12.890625 
Q 45.40625 18.265625 45.40625 27.984375 
z
M 54.390625 6.78125 
Q 54.390625 -7.171875 48.1875 -13.984375 
Q 42 -20.796875 29.203125 -20.796875 
Q 24.46875 -20.796875 20.265625 -20.09375 
Q 16.0625 -19.390625 12.109375 -17.921875 
L 12.109375 -9.1875 
Q 16.0625 -11.328125 19.921875 -12.34375 
Q 23.78125 -13.375 27.78125 -13.375 
Q 36.625 -13.375 41.015625 -8.765625 
Q 45.40625 -4.15625 45.40625 5.171875 
L 45.40625 9.625 
Q 42.625 4.78125 38.28125 2.390625 
Q 33.9375 0 27.875 0 
Q 17.828125 0 11.671875 7.65625 
Q 5.515625 15.328125 5.515625 27.984375 
Q 5.515625 40.671875 11.671875 48.328125 
Q 17.828125 56 27.875 56 
Q 33.9375 56 38.28125 53.609375 
Q 42.625 51.21875 45.40625 46.390625 
L 45.40625 54.6875 
L 54.390625 54.6875 
z
" id="DejaVuSans-103"/>
      <path d="M 18.3125 70.21875 
L 18.3125 54.6875 
L 36.8125 54.6875 
L 36.8125 47.703125 
L 18.3125 47.703125 
L 18.3125 18.015625 
Q 18.3125 11.328125 20.140625 9.421875 
Q 21.96875 7.515625 27.59375 7.515625 
L 36.8125 7.515625 
L 36.8125 0 
L 27.59375 0 
Q 17.1875 0 13.234375 3.875 
Q 9.28125 7.765625 9.28125 18.015625 
L 9.28125 47.703125 
L 2.6875 47.703125 
L 2.6875 54.6875 
L 9.28125 54.6875 
L 9.28125 70.21875 
z
" id="DejaVuSans-116"/>
     </defs>
     <g style="fill:#262626;" transform="translate(181.55875 80.4675)scale(0.165 -0.165)">
      <use transform="translate(0 0.765625)" xlink:href="#DejaVuSans-97"/>
      <use transform="translate(61.279297 0.765625)" xlink:href="#DejaVuSans-103"/>
      <use transform="translate(124.755859 0.765625)" xlink:href="#DejaVuSans-101"/>
      <use transform="translate(186.279297 0.765625)" xlink:href="#DejaVuSans-110"/>
      <use transform="translate(249.658203 0.765625)" xlink:href="#DejaVuSans-116"/>
      <use transform="translate(288.867188 0.765625)" xlink:href="#DejaVuSans-115"/>
      <use transform="translate(340.966797 0.765625)" xlink:href="#DejaVuSans-44"/>
      <use transform="translate(372.753906 0.765625)" xlink:href="#DejaVuSans-32"/>
      <use transform="translate(404.541016 0.765625)" xlink:href="#DejaVuSans-Oblique-114"/>
      <use transform="translate(450.304193 39.046875)scale(0.7)" xlink:href="#DejaVuSans-50"/>
      <use transform="translate(517.057122 0.765625)" xlink:href="#DejaVuSans-61"/>
      <use transform="translate(620.328607 0.765625)" xlink:href="#DejaVuSans-48"/>
      <use transform="translate(683.951654 0.765625)" xlink:href="#DejaVuSans-46"/>
      <use transform="translate(715.738763 0.765625)" xlink:href="#DejaVuSans-54"/>
      <use transform="translate(779.36181 0.765625)" xlink:href="#DejaVuSans-52"/>
      <use transform="translate(842.984857 0.765625)" xlink:href="#DejaVuSans-44"/>
      <use transform="translate(874.771966 0.765625)" xlink:href="#DejaVuSans-32"/>
      <use transform="translate(906.559076 0.765625)" xlink:href="#DejaVuSans-Oblique-112"/>
      <use transform="translate(989.51806 0.765625)" xlink:href="#DejaVuSans-61"/>
      <use transform="translate(1092.789544 0.765625)" xlink:href="#DejaVuSans-48"/>
      <use transform="translate(1156.412591 0.765625)" xlink:href="#DejaVuSans-46"/>
      <use transform="translate(1188.199701 0.765625)" xlink:href="#DejaVuSans-48"/>
      <use transform="translate(1251.822747 0.765625)" xlink:href="#DejaVuSans-48"/>
      <use transform="translate(1315.445794 0.765625)" xlink:href="#DejaVuSans-48"/>
      <use transform="translate(1379.068841 0.765625)" xlink:href="#DejaVuSans-50"/>
      <use transform="translate(1442.691888 0.765625)" xlink:href="#DejaVuSans-32"/>
      <use transform="translate(1474.478997 0.765625)" xlink:href="#DejaVuSans-40"/>
      <use transform="translate(1513.492669 0.765625)" xlink:href="#DejaVuSans-Oblique-78"/>
      <use transform="translate(1607.779779 0.765625)" xlink:href="#DejaVuSans-61"/>
      <use transform="translate(1711.051263 0.765625)" xlink:href="#DejaVuSans-51"/>
      <use transform="translate(1774.67431 0.765625)" xlink:href="#DejaVuSans-48"/>
      <use transform="translate(1838.297357 0.765625)" xlink:href="#DejaVuSans-41"/>
     </g>
    </g>
   </g>
  </g>
 </g>
 <defs>
  <clipPath id="pfe596cfc67">
   <rect height="384.15" width="466.0575" x="85.315" y="119.91"/>
  </clipPath>
 </defs>
</svg>
